<svg width="256" height="256" viewBox="0 0 256 256" fill="none" xmlns="http://www.w3.org/2000/svg">
<rect width="256" height="256" fill="#2D49FF"/>
<path d="M66.896 103.936C65.168 103.936 63.44 104.8 61.712 106.528V153.664H66.128C67.472 153.664 68.56 153.344 69.392 152.704C70.224 152 70.64 151.04 70.64 149.824V107.584C70.64 105.152 69.392 103.936 66.896 103.936ZM68.72 97.6C75.056 97.6 78.224 100.736 78.224 107.008V149.824C78.224 153.024 77.104 155.52 74.864 157.312C72.688 159.104 69.712 160 65.936 160H54.128V106.912C54.128 105.504 53.872 104.512 53.36 103.936C52.848 103.296 51.92 102.976 50.576 102.976C50.512 101.312 50.96 100 51.92 99.04C52.88 98.08 54.416 97.6 56.528 97.6C58.704 97.6 60.208 98.656 61.04 100.768C63.536 98.656 66.096 97.6 68.72 97.6ZM99.2623 122.272C99.2623 120.992 98.8783 120 98.1103 119.296C97.3423 118.528 96.3823 118.144 95.2303 118.144C92.8623 118.144 91.6783 119.136 91.6783 121.12V134.848L96.2863 131.392C98.2703 129.92 99.2623 126.88 99.2623 122.272ZM84.4783 151.456V121.408C84.4783 115.136 88.1583 112 95.5182 112C102.942 112 106.654 115.52 106.654 122.56C106.654 125.376 106.142 127.968 105.118 130.336C104.094 132.704 102.686 134.496 100.894 135.712L91.6783 142.048V150.784C91.6783 153.472 92.9263 154.816 95.4223 154.816C97.9823 154.816 99.2623 153.312 99.2623 150.304V148.096L98.9743 143.584C99.8063 143.392 100.638 143.296 101.47 143.296C102.366 143.296 103.198 143.424 103.966 143.68C105.502 144.064 106.27 144.8 106.27 145.888V152.8C106.27 155.36 105.246 157.376 103.198 158.848C101.214 160.256 98.5583 160.96 95.2303 160.96C88.0623 160.96 84.4783 157.792 84.4783 151.456ZM112.333 100.48C112.333 99.008 112.045 97.056 111.469 94.624C113.389 93.6 115.437 93.088 117.613 93.088C118.893 93.088 119.533 93.568 119.533 94.528V152.032C119.533 153.376 119.757 154.336 120.205 154.912C120.717 155.488 121.645 155.776 122.989 155.776C123.053 157.44 122.605 158.72 121.645 159.616C120.749 160.512 119.405 160.96 117.613 160.96C115.821 160.96 114.477 160.416 113.581 159.328C112.749 158.24 112.333 156.448 112.333 153.952V100.48ZM141.637 122.272C141.637 120.992 141.253 120 140.485 119.296C139.717 118.528 138.757 118.144 137.605 118.144C135.237 118.144 134.053 119.136 134.053 121.12V134.848L138.661 131.392C140.645 129.92 141.637 126.88 141.637 122.272ZM126.853 151.456V121.408C126.853 115.136 130.533 112 137.893 112C145.317 112 149.029 115.52 149.029 122.56C149.029 125.376 148.517 127.968 147.493 130.336C146.469 132.704 145.061 134.496 143.269 135.712L134.053 142.048V150.784C134.053 153.472 135.301 154.816 137.797 154.816C140.357 154.816 141.637 153.312 141.637 150.304V148.096L141.349 143.584C142.181 143.392 143.013 143.296 143.845 143.296C144.741 143.296 145.573 143.424 146.341 143.68C147.877 144.064 148.645 144.8 148.645 145.888V152.8C148.645 155.36 147.621 157.376 145.573 158.848C143.589 160.256 140.933 160.96 137.605 160.96C130.437 160.96 126.853 157.792 126.853 151.456ZM176.98 152.608C176.98 155.296 175.956 157.376 173.908 158.848C171.86 160.256 169.236 160.96 166.036 160.96C162.9 160.96 160.372 160.16 158.452 158.56C156.596 156.896 155.668 154.688 155.668 151.936V118.72L152.692 119.2C152.244 117.536 152.02 116.096 152.02 114.88C152.02 113.6 152.436 112.96 153.268 112.96H155.86L157.204 103.936C157.46 102.528 158.644 101.824 160.756 101.824C161.396 101.824 162.1 101.888 162.868 102.016V112.96H171.22L176.212 112.48C176.532 114.144 176.692 115.616 176.692 116.896C176.692 118.112 176.276 118.72 175.444 118.72H162.868V150.784C162.868 152.128 163.188 153.184 163.828 153.952C164.532 154.656 165.396 155.008 166.42 155.008C168.788 155.008 169.972 153.44 169.972 150.304V143.296L169.684 138.784C170.516 138.592 171.348 138.496 172.18 138.496C173.076 138.496 173.908 138.624 174.676 138.88C176.212 139.264 176.98 140 176.98 141.088V152.608ZM196.2 122.272C196.2 120.992 195.816 120 195.048 119.296C194.28 118.528 193.32 118.144 192.168 118.144C189.8 118.144 188.616 119.136 188.616 121.12V134.848L193.224 131.392C195.208 129.92 196.2 126.88 196.2 122.272ZM181.416 151.456V121.408C181.416 115.136 185.096 112 192.456 112C199.88 112 203.592 115.52 203.592 122.56C203.592 125.376 203.08 127.968 202.056 130.336C201.032 132.704 199.624 134.496 197.832 135.712L188.616 142.048V150.784C188.616 153.472 189.864 154.816 192.36 154.816C194.92 154.816 196.2 153.312 196.2 150.304V148.096L195.912 143.584C196.744 143.392 197.576 143.296 198.408 143.296C199.304 143.296 200.136 143.424 200.904 143.68C202.44 144.064 203.208 144.8 203.208 145.888V152.8C203.208 155.36 202.184 157.376 200.136 158.848C198.152 160.256 195.496 160.96 192.168 160.96C185 160.96 181.416 157.792 181.416 151.456Z" fill="black"/>
</svg>
