<svg width="256" height="256" viewBox="0 0 256 256" fill="none" xmlns="http://www.w3.org/2000/svg">
<rect width="256" height="256" fill="#FFE62D"/>
<path d="M77.8 103.936C76.072 103.936 74.344 104.8 72.616 106.528V150.976L73 160C70.824 160.32 68.68 160.48 66.568 160.48C65.544 160.48 65.032 159.936 65.032 158.848V106.912C65.032 105.504 64.776 104.512 64.264 103.936C63.752 103.296 62.824 102.976 61.48 102.976C61.416 101.312 61.864 100 62.824 99.04C63.784 98.08 65.32 97.6 67.432 97.6C69.544 97.6 71.048 98.656 71.944 100.768C74.44 98.656 77 97.6 79.624 97.6C83.528 97.6 86.216 98.816 87.688 101.248C90.312 98.816 93.064 97.6 95.944 97.6C102.28 97.6 105.448 100.736 105.448 107.008V151.84C105.448 153.184 105.704 154.144 106.216 154.72C106.792 155.232 107.752 155.488 109.096 155.488C109.096 159.136 107.048 160.96 102.952 160.96C99.56 160.96 97.864 158.752 97.864 154.336V107.584C97.864 105.152 96.616 103.936 94.12 103.936C92.136 103.936 90.472 104.736 89.128 106.336V150.976L89.512 160C87.336 160.32 85.192 160.48 83.08 160.48C82.056 160.48 81.544 159.936 81.544 158.848V107.584C81.544 105.152 80.296 103.936 77.8 103.936ZM112.447 151.168V122.176C112.447 118.976 113.439 116.48 115.423 114.688C117.407 112.896 120.095 112 123.487 112C126.879 112 129.503 112.832 131.359 114.496C133.279 116.16 134.239 118.592 134.239 121.792V150.784C134.239 153.984 133.215 156.48 131.167 158.272C129.183 160.064 126.495 160.96 123.103 160.96C119.711 160.96 117.087 160.128 115.231 158.464C113.375 156.8 112.447 154.368 112.447 151.168ZM119.647 121.792V151.168C119.647 152.256 119.999 153.184 120.703 153.952C121.407 154.656 122.271 155.008 123.295 155.008C124.383 155.008 125.279 154.656 125.983 153.952C126.687 153.184 127.039 152.256 127.039 151.168V121.792C127.039 120.704 126.687 119.808 125.983 119.104C125.279 118.336 124.383 117.952 123.295 117.952C122.271 117.952 121.407 118.336 120.703 119.104C119.999 119.808 119.647 120.704 119.647 121.792ZM142.593 112C144.385 112 145.665 112.512 146.433 113.536C147.265 114.56 147.681 116.864 147.681 120.448C147.681 123.968 148.129 129.28 149.025 136.384C149.921 143.488 150.913 149.312 152.001 153.856C154.945 140.736 156.417 129.12 156.417 119.008L156.225 112.768C157.441 112.512 158.593 112.384 159.681 112.384C160.833 112.384 161.857 112.512 162.753 112.768C163.713 113.024 164.193 113.664 164.193 114.688C164.193 120.128 163.553 127.168 162.273 135.808C160.993 144.448 159.553 151.36 157.953 156.544C157.249 158.848 156.097 160 154.497 160H148.833C147.233 160 146.081 158.848 145.377 156.544C143.969 151.68 142.785 145.728 141.825 138.688C140.929 131.584 140.48 125.664 140.48 120.928C140.48 119.584 140.225 118.624 139.713 118.048C139.265 117.472 138.369 117.184 137.024 117.184C136.96 115.584 137.409 114.336 138.369 113.44C139.393 112.48 140.801 112 142.593 112ZM184.044 122.272C184.044 120.992 183.66 120 182.892 119.296C182.124 118.528 181.164 118.144 180.012 118.144C177.644 118.144 176.46 119.136 176.46 121.12V134.848L181.068 131.392C183.052 129.92 184.044 126.88 184.044 122.272ZM169.26 151.456V121.408C169.26 115.136 172.94 112 180.299 112C187.724 112 191.436 115.52 191.436 122.56C191.436 125.376 190.924 127.968 189.9 130.336C188.876 132.704 187.468 134.496 185.676 135.712L176.46 142.048V150.784C176.46 153.472 177.708 154.816 180.204 154.816C182.764 154.816 184.044 153.312 184.044 150.304V148.096L183.756 143.584C184.588 143.392 185.42 143.296 186.252 143.296C187.148 143.296 187.98 143.424 188.748 143.68C190.284 144.064 191.052 144.8 191.052 145.888V152.8C191.052 155.36 190.028 157.376 187.98 158.848C185.996 160.256 183.34 160.96 180.012 160.96C172.844 160.96 169.26 157.792 169.26 151.456Z" fill="black"/>
</svg>
