<svg width="256" height="256" viewBox="0 0 256 256" fill="none" xmlns="http://www.w3.org/2000/svg">
<rect width="256" height="256" fill="#57FF2D"/>
<path d="M47.032 158.848V106.912C47.032 105.504 46.776 104.512 46.264 103.936C45.752 103.296 44.824 102.976 43.48 102.976C43.416 101.312 43.864 100 44.824 99.04C45.784 98.08 47.32 97.6 49.432 97.6C51.544 97.6 53.048 98.656 53.944 100.768C56.44 98.656 59 97.6 61.624 97.6C67.96 97.6 71.128 100.736 71.128 107.008V129.28C71.128 133.312 69.432 136.192 66.04 137.92L68.056 150.784C68.376 152.832 69.368 153.856 71.032 153.856C71.544 153.856 72.152 153.728 72.856 153.472C73.112 154.24 73.24 155.168 73.24 156.256C73.24 157.28 72.696 158.336 71.608 159.424C70.584 160.448 69.24 160.96 67.576 160.96C63.8 160.96 61.656 159.328 61.144 156.064L58.36 139.456H54.616V150.976L55 160C52.824 160.32 50.68 160.48 48.568 160.48C47.544 160.48 47.032 159.936 47.032 158.848ZM59.8 103.936C58.072 103.936 56.344 104.8 54.616 106.528V133.12H59.032C60.376 133.12 61.464 132.8 62.296 132.16C63.128 131.456 63.544 130.496 63.544 129.28V107.584C63.544 105.152 62.296 103.936 59.8 103.936ZM77.8533 151.168V122.176C77.8533 118.976 78.8453 116.48 80.8293 114.688C82.8133 112.896 85.5013 112 88.8932 112C92.2853 112 94.9093 112.832 96.7653 114.496C98.6853 116.16 99.6453 118.592 99.6453 121.792V150.784C99.6453 153.984 98.6213 156.48 96.5733 158.272C94.5893 160.064 91.9013 160.96 88.5093 160.96C85.1173 160.96 82.4933 160.128 80.6373 158.464C78.7813 156.8 77.8533 154.368 77.8533 151.168ZM85.0533 121.792V151.168C85.0533 152.256 85.4053 153.184 86.1093 153.952C86.8133 154.656 87.6773 155.008 88.7013 155.008C89.7893 155.008 90.6853 154.656 91.3893 153.952C92.0933 153.184 92.4453 152.256 92.4453 151.168V121.792C92.4453 120.704 92.0933 119.808 91.3893 119.104C90.6853 118.336 89.7893 117.952 88.7013 117.952C87.6773 117.952 86.8133 118.336 86.1093 119.104C85.4053 119.808 85.0533 120.704 85.0533 121.792ZM128.543 152.608C128.543 155.296 127.519 157.376 125.471 158.848C123.423 160.256 120.799 160.96 117.599 160.96C114.463 160.96 111.935 160.16 110.015 158.56C108.159 156.896 107.231 154.688 107.231 151.936V118.72L104.255 119.2C103.807 117.536 103.583 116.096 103.583 114.88C103.583 113.6 103.999 112.96 104.831 112.96H107.423L108.767 103.936C109.023 102.528 110.207 101.824 112.319 101.824C112.959 101.824 113.663 101.888 114.431 102.016V112.96H122.783L127.775 112.48C128.095 114.144 128.255 115.616 128.255 116.896C128.255 118.112 127.839 118.72 127.007 118.72H114.431V150.784C114.431 152.128 114.751 153.184 115.391 153.952C116.095 154.656 116.959 155.008 117.983 155.008C120.351 155.008 121.535 153.44 121.535 150.304V143.296L121.247 138.784C122.079 138.592 122.911 138.496 123.743 138.496C124.639 138.496 125.471 138.624 126.239 138.88C127.775 139.264 128.543 140 128.543 141.088V152.608ZM142.674 142.432C140.562 143.84 139.506 146.208 139.506 149.536C139.506 152.8 140.498 154.432 142.482 154.432C144.53 154.432 146.13 153.28 147.282 150.976V139.36L142.674 142.432ZM143.73 112C150.898 112 154.482 115.168 154.482 121.504V152.032C154.482 153.376 154.706 154.336 155.154 154.912C155.666 155.488 156.594 155.776 157.938 155.776C158.002 157.44 157.554 158.72 156.594 159.616C155.698 160.512 154.386 160.96 152.658 160.96C149.97 160.96 148.338 159.968 147.762 157.984C145.778 159.968 143.442 160.96 140.754 160.96C138.066 160.96 135.922 159.936 134.322 157.888C132.722 155.84 131.922 153.088 131.922 149.632C131.922 144.384 134.13 140.416 138.546 137.728L147.282 132.544V122.176C147.282 119.488 146.002 118.144 143.442 118.144C140.946 118.144 139.698 119.648 139.698 122.656V125.824L139.986 130.336C139.154 130.528 138.29 130.624 137.394 130.624C136.562 130.624 135.762 130.496 134.994 130.24C133.458 129.856 132.69 129.12 132.69 128.032V120.16C132.69 117.6 133.682 115.616 135.666 114.208C137.714 112.736 140.402 112 143.73 112ZM184.137 152.608C184.137 155.296 183.113 157.376 181.065 158.848C179.017 160.256 176.393 160.96 173.193 160.96C170.057 160.96 167.529 160.16 165.609 158.56C163.753 156.896 162.825 154.688 162.825 151.936V118.72L159.849 119.2C159.401 117.536 159.177 116.096 159.177 114.88C159.177 113.6 159.593 112.96 160.425 112.96H163.017L164.361 103.936C164.617 102.528 165.801 101.824 167.913 101.824C168.553 101.824 169.257 101.888 170.025 102.016V112.96H178.377L183.369 112.48C183.689 114.144 183.849 115.616 183.849 116.896C183.849 118.112 183.433 118.72 182.601 118.72H170.025V150.784C170.025 152.128 170.345 153.184 170.984 153.952C171.689 154.656 172.553 155.008 173.577 155.008C175.945 155.008 177.129 153.44 177.129 150.304V143.296L176.841 138.784C177.673 138.592 178.505 138.496 179.337 138.496C180.233 138.496 181.065 138.624 181.833 138.88C183.369 139.264 184.137 140 184.137 141.088V152.608ZM203.356 122.272C203.356 120.992 202.972 120 202.204 119.296C201.436 118.528 200.476 118.144 199.324 118.144C196.956 118.144 195.772 119.136 195.772 121.12V134.848L200.38 131.392C202.364 129.92 203.356 126.88 203.356 122.272ZM188.572 151.456V121.408C188.572 115.136 192.252 112 199.612 112C207.036 112 210.748 115.52 210.748 122.56C210.748 125.376 210.236 127.968 209.212 130.336C208.188 132.704 206.78 134.496 204.988 135.712L195.772 142.048V150.784C195.772 153.472 197.02 154.816 199.516 154.816C202.076 154.816 203.356 153.312 203.356 150.304V148.096L203.068 143.584C203.9 143.392 204.732 143.296 205.564 143.296C206.46 143.296 207.292 143.424 208.06 143.68C209.596 144.064 210.364 144.8 210.364 145.888V152.8C210.364 155.36 209.34 157.376 207.292 158.848C205.308 160.256 202.652 160.96 199.324 160.96C192.156 160.96 188.572 157.792 188.572 151.456Z" fill="black"/>
</svg>
