<svg width="256" height="256" viewBox="0 0 256 256" fill="none" xmlns="http://www.w3.org/2000/svg">
<rect width="256" height="256" fill="#FF2D68"/>
<path d="M66.976 119.776V106.816C66.976 103.616 68.064 101.12 70.24 99.328C72.416 97.536 75.328 96.64 78.976 96.64C82.688 96.64 85.632 97.472 87.808 99.136C89.984 100.736 91.072 102.848 91.072 105.472V117.376C91.072 118.528 90.24 119.328 88.576 119.776C87.68 120.032 86.784 120.16 85.888 120.16C84.992 120.16 84.096 120.064 83.2 119.872C83.392 118.336 83.488 116.704 83.488 114.976V106.816C83.488 105.6 83.072 104.672 82.24 104.032C81.408 103.328 80.32 102.976 78.976 102.976C77.632 102.976 76.544 103.328 75.712 104.032C74.944 104.672 74.56 105.6 74.56 106.816V118.048C74.56 120.288 75.296 121.856 76.768 122.752L86.944 129.28C89.824 131.072 91.264 133.824 91.264 137.536V150.784C91.264 153.984 90.144 156.48 87.904 158.272C85.664 160.064 82.688 160.96 78.976 160.96C75.328 160.96 72.384 160.16 70.144 158.56C67.904 156.896 66.784 154.752 66.784 152.128V140.224C66.784 139.072 67.616 138.272 69.28 137.824C70.176 137.568 71.072 137.44 71.968 137.44C72.864 137.44 73.76 137.536 74.656 137.728C74.464 139.264 74.368 140.896 74.368 142.624V150.784C74.368 151.936 74.816 152.864 75.712 153.568C76.608 154.272 77.728 154.624 79.072 154.624C80.416 154.624 81.504 154.272 82.336 153.568C83.232 152.864 83.68 151.936 83.68 150.784V139.936C83.68 137.44 82.816 135.648 81.088 134.56L70.912 127.936C68.288 126.272 66.976 123.552 66.976 119.776ZM115.692 150.304C118.252 151.456 119.531 153.12 119.531 155.296C119.531 156 119.244 156.576 118.668 157.024C116.108 159.648 112.236 160.96 107.052 160.96C100.524 160.96 97.2595 157.376 97.2595 150.208V121.408C97.2595 115.136 100.972 112 108.396 112C111.66 112 114.22 112.736 116.076 114.208C117.932 115.68 118.859 117.664 118.859 120.16V128.032C118.859 129.12 118.092 129.856 116.556 130.24C115.788 130.496 114.956 130.624 114.06 130.624C113.228 130.624 112.396 130.528 111.564 130.336C111.756 128.928 111.852 127.424 111.852 125.824V122.656C111.852 121.056 111.564 119.904 110.988 119.2C110.412 118.496 109.42 118.144 108.012 118.144C105.644 118.144 104.46 119.136 104.46 121.12V149.056C104.46 151.04 104.78 152.48 105.42 153.376C106.06 154.272 107.116 154.72 108.588 154.72C110.124 154.72 111.596 154.24 113.004 153.28C114.412 152.32 115.308 151.328 115.692 150.304ZM133.862 142.432C131.75 143.84 130.694 146.208 130.694 149.536C130.694 152.8 131.686 154.432 133.67 154.432C135.718 154.432 137.318 153.28 138.47 150.976V139.36L133.862 142.432ZM134.918 112C142.086 112 145.67 115.168 145.67 121.504V152.032C145.67 153.376 145.894 154.336 146.342 154.912C146.854 155.488 147.782 155.776 149.126 155.776C149.19 157.44 148.742 158.72 147.782 159.616C146.886 160.512 145.574 160.96 143.846 160.96C141.158 160.96 139.526 159.968 138.95 157.984C136.966 159.968 134.63 160.96 131.942 160.96C129.254 160.96 127.11 159.936 125.51 157.888C123.91 155.84 123.11 153.088 123.11 149.632C123.11 144.384 125.318 140.416 129.734 137.728L138.47 132.544V122.176C138.47 119.488 137.19 118.144 134.63 118.144C132.134 118.144 130.886 119.648 130.886 122.656V125.824L131.174 130.336C130.342 130.528 129.478 130.624 128.582 130.624C127.75 130.624 126.95 130.496 126.182 130.24C124.646 129.856 123.878 129.12 123.878 128.032V120.16C123.878 117.6 124.87 115.616 126.854 114.208C128.902 112.736 131.59 112 134.918 112ZM153.052 100.48C153.052 99.008 152.764 97.056 152.188 94.624C154.108 93.6 156.156 93.088 158.332 93.088C159.612 93.088 160.252 93.568 160.252 94.528V152.032C160.252 153.376 160.476 154.336 160.924 154.912C161.436 155.488 162.364 155.776 163.708 155.776C163.772 157.44 163.324 158.72 162.364 159.616C161.468 160.512 160.124 160.96 158.332 160.96C156.54 160.96 155.196 160.416 154.3 159.328C153.468 158.24 153.052 156.448 153.052 153.952V100.48ZM182.356 122.272C182.356 120.992 181.972 120 181.204 119.296C180.436 118.528 179.476 118.144 178.324 118.144C175.956 118.144 174.772 119.136 174.772 121.12V134.848L179.38 131.392C181.364 129.92 182.356 126.88 182.356 122.272ZM167.572 151.456V121.408C167.572 115.136 171.252 112 178.612 112C186.036 112 189.748 115.52 189.748 122.56C189.748 125.376 189.236 127.968 188.212 130.336C187.188 132.704 185.78 134.496 183.988 135.712L174.772 142.048V150.784C174.772 153.472 176.02 154.816 178.516 154.816C181.076 154.816 182.356 153.312 182.356 150.304V148.096L182.068 143.584C182.9 143.392 183.732 143.296 184.564 143.296C185.46 143.296 186.292 143.424 187.06 143.68C188.596 144.064 189.364 144.8 189.364 145.888V152.8C189.364 155.36 188.34 157.376 186.292 158.848C184.308 160.256 181.652 160.96 178.324 160.96C171.156 160.96 167.572 157.792 167.572 151.456Z" fill="black"/>
</svg>
